<svg width="8" height="7" viewBox="0 0 8 7" fill="none" xmlns="http://www.w3.org/2000/svg">
<path d="M7.85743 0.83141L7.15248 0.141488C7.05743 0.0484647 6.93861 0.00195312 6.80396 0.00195312C6.66931 0.00195312 6.5505 0.0484647 6.45545 0.141488L3.06535 3.45932L1.55248 1.97095C1.45743 1.87792 1.33861 1.83141 1.20396 1.83141C1.06931 1.83141 0.950495 1.87792 0.855446 1.97095L0.150495 2.66087C0.0475248 2.75389 0 2.87017 0 3.00195C0 3.13374 0.0475247 3.25002 0.142574 3.34304L2.01188 5.1725L2.71683 5.86242C2.81188 5.95544 2.93069 6.00195 3.06535 6.00195C3.2 6.00195 3.31881 5.95544 3.41386 5.86242L4.11881 5.1725L7.85743 1.51358C7.95248 1.42056 8 1.30428 8 1.1725C8 1.04071 7.95248 0.924434 7.85743 0.83141Z" fill="white"/>
</svg>
